<svg width="11" height="11" viewBox="0 0 11 11" fill="none" xmlns="http://www.w3.org/2000/svg">
<path fill-rule="evenodd" clip-rule="evenodd" d="M10.1056 8.6392C10.4973 9.02851 10.4993 9.66167 10.11 10.0534C9.72069 10.4451 9.08752 10.4471 8.69578 10.0578L5.20036 6.5841L1.7049 10.0578C1.31316 10.4472 0.68 10.4452 0.290694 10.0534C-0.098612 9.66171 -0.0966395 9.02854 0.295099 8.63924L3.78172 5.17427L0.295099 1.70931C-0.0966395 1.32 -0.098612 0.686839 0.290694 0.295099C0.68 -0.0966396 1.31316 -0.0986118 1.7049 0.290694L5.20036 3.76444L8.69578 0.290732C9.08752 -0.0985743 9.72069 -0.0966018 10.11 0.295137C10.4993 0.686876 10.4973 1.32004 10.1056 1.70934L6.619 5.17427L10.1056 8.6392Z" fill="white"/>
</svg>
